<svg xmlns="http://www.w3.org/2000/svg" viewBox="0 0 1600 900" fill="none"><defs><linearGradient id="g" x1="0" y1="0" x2="1" y2="1"><stop stop-color="#0b5cff" stop-opacity=".34"/><stop offset="1" stop-color="#00d9ff" stop-opacity=".04"/></linearGradient><filter id="b"><feGaussianBlur stdDeviation="35"/></filter></defs><rect width="1600" height="900" fill="#06101a"/><circle cx="1250" cy="170" r="220" fill="#1267ff" opacity=".13" filter="url(#b)"/><circle cx="350" cy="700" r="260" fill="#00d9ff" opacity=".07" filter="url(#b)"/><path d="M0 110h1600M0 220h1600M0 330h1600M0 440h1600M0 550h1600M0 660h1600M0 770h1600M160 0v900M320 0v900M480 0v900M640 0v900M800 0v900M960 0v900M1120 0v900M1280 0v900M1440 0v900" stroke="#8ccaff" stroke-opacity=".055"/><rect x="220" y="150" width="760" height="470" rx="24" fill="#081827" stroke="#5fa9ff" stroke-opacity=".22"/><path d="M220 215h760" stroke="#5fa9ff" stroke-opacity=".18"/><circle cx="250" cy="182" r="6" fill="#ff6b6b"/><circle cx="271" cy="182" r="6" fill="#ffd166"/><circle cx="292" cy="182" r="6" fill="#4ade80"/><g opacity=".7"><rect x="270" y="270" width="240" height="9" rx="4" fill="url(#g)"/><rect x="270" y="310" width="440" height="7" rx="3" fill="#7fb8ff" opacity=".35"/><rect x="270" y="345" width="330" height="7" rx="3" fill="#56e0ff" opacity=".25"/><rect x="270" y="380" width="500" height="7" rx="3" fill="#7fb8ff" opacity=".22"/><rect x="270" y="450" width="170" height="7" rx="3" fill="#56e0ff" opacity=".3"/><rect x="270" y="485" width="390" height="7" rx="3" fill="#7fb8ff" opacity=".2"/></g><path d="M1110 690l90-90 70 55 120-180" stroke="#55c9ff" stroke-width="6" opacity=".45"/><path d="M1110 730h300" stroke="#55c9ff" stroke-opacity=".18"/></svg>
